<?xml version="1.0" standalone="yes"?>
<svg xmlns="http://www.w3.org/2000/svg" width="1825" height="1181">
<path style="fill:#000000; stroke:none;" d="M0 0L0 1181L1825 1181L1825 0L0 0z"/>
<path style="fill:#1ba0fa; stroke:none;" d="M133 298L135 298C135.124 303.247 138.965 307.047 142.2 310.985C151.19 321.93 163.523 331.104 177 335.644C200.843 343.678 231.385 341.268 252 325.76C257.781 321.411 262.885 316.648 267.399 310.999C270.355 307.299 272.723 302.727 276.21 299.518C281.101 295.017 287.487 291.692 293 287.999C301.14 282.546 309.035 276.705 317 271C313.766 259.687 308.53 247.384 303 237C297.097 240.643 291.632 244.955 286 249C284.099 241.286 282.748 233.316 279.485 226C268.941 202.354 247.481 183.647 222 178.286C211.362 176.048 200.692 177.156 190 178C190.607 170.574 192.922 163.027 195.344 156C197.116 150.86 199.607 145.579 198.667 140C195.589 121.744 172.934 125.226 164.649 137.001C156.982 147.896 155.462 165.081 154.169 178C153.674 182.947 154.179 189.299 152.397 193.961C150.927 197.808 146.698 200.894 144.081 204.004C138.565 210.558 133.841 217.165 130.312 225C123.217 240.752 121.811 260.255 125.898 277C127.629 284.092 131.839 290.937 133 298M442 148C446.488 158.722 453.528 168.262 458 179C468.919 177.12 479.224 171.029 490 168.155C509.927 162.841 528.125 163.443 548 168C552.593 156.968 559.407 147.032 564 136C551.251 131.853 538.467 128.629 525 128.039C496.138 126.775 468.154 137.126 442 148M1148 145C1151.75 156.017 1156.53 167.734 1162 178C1177.52 174.99 1192.39 174.352 1208 177.261C1214.12 178.402 1220.03 180.151 1226 181.859C1228.33 182.524 1231.37 183.903 1233.82 183.212C1236.87 182.351 1238.98 178.359 1240.77 176C1245.94 169.185 1251.73 162.415 1256 155C1233.61 144.529 1208.56 140 1184 140C1172.25 140 1159.09 140.839 1148 145M591 155C587.872 162.514 583.894 169.724 580.247 177C578.838 179.811 575.816 183.725 576.098 187C576.536 192.076 583.43 197.74 586.085 202C593.075 213.215 599.935 226.068 603 239C613.888 235.518 625.693 231.664 637 230C636.437 223.547 633.601 217.934 631.201 212C625.41 197.683 617.974 184.366 608.731 172C604.033 165.715 598.211 158.363 591 155M1042 218C1048.84 222.524 1056.01 226.531 1063 230.811C1065.51 232.349 1068.84 235.363 1072 234.978C1075.22 234.585 1077.44 231.227 1079.42 229.014C1082.68 225.384 1086.49 222.368 1090 218.989C1101.64 207.772 1115.28 196.881 1130 190C1128.3 178.67 1121.33 167.553 1117 157C1110.83 158.779 1105.44 162.474 1100 165.811C1085.73 174.572 1073.2 185.41 1061.04 196.826C1054.56 202.911 1045.77 209.924 1042 218M331 216C333.804 227.833 340.669 238.348 344 250C353.889 246.25 362.391 237.765 371 231.721C389.386 218.813 408.593 204.539 429 195C426.436 186.898 421.08 179.571 417.248 172C416.054 169.641 414.72 165.516 411.787 164.828C409.368 164.261 406.929 166.155 405 167.32L390 176.2C377.401 183.759 364.958 191.883 353 200.427C345.73 205.622 338.767 211.575 331 216M1286 170C1279.09 179.615 1270.86 188.711 1265 199L1281 207C1273.42 225.241 1269.4 243.218 1273.45 263C1275.06 270.886 1279.72 278.241 1281 286L1283 286C1283.19 293.938 1292.37 302.01 1298.01 307C1314.64 321.703 1341.29 333.714 1364 327C1364.48 333.04 1368.74 333.341 1374 334.4C1382.23 336.056 1390.6 338.638 1399 339C1399.1 334.3 1399.98 329.709 1400 325C1400.02 321.558 1399.34 317.237 1401.03 314.089C1403.58 309.335 1409.5 306.112 1413 301.961C1422.04 291.223 1429.35 278.748 1432.5 265C1442.82 219.973 1409.5 168.361 1362 165.089C1348.46 164.157 1335.73 166.051 1323 170.695C1317.63 172.653 1310.74 179.111 1305 178.802C1298.55 178.455 1292.25 171.839 1286 170z"/>
<path style="fill:#000000; stroke:none;" d="M1352 182.464C1327.89 184.575 1304.83 196.823 1294.87 220C1277.66 260.065 1306.45 312.929 1353 310.625C1383.15 309.133 1410.6 288.775 1415.68 258C1421.73 221.319 1391.7 178.987 1352 182.464z"/>
<path style="fill:#1ba0fa; stroke:none;" d="M1344 191.465C1335.89 192.925 1327.87 196.46 1321 200.965C1314.22 205.415 1308.98 211.927 1305.22 219C1299.29 230.155 1296.21 242.278 1298.33 255C1303.19 284.178 1332.68 305.813 1362 300.535C1370.06 299.086 1378.31 295.735 1385 291.022C1410.52 273.039 1415.32 236.454 1396.47 212C1388.93 202.224 1378.57 196.385 1367 192.671C1359.99 190.42 1351.26 190.157 1344 191.465z"/>
<path style="fill:#000000; stroke:none;" d="M204 194.464C179.894 196.575 156.828 208.823 146.873 232C129.664 272.065 158.455 324.929 205 322.625C235.145 321.133 262.598 300.775 267.675 270C273.727 233.319 243.699 190.987 204 194.464z"/>
<path style="fill:#1ba0fa; stroke:none;" d="M196 203.465C187.887 204.925 179.868 208.46 173 212.965C166.218 217.414 160.977 223.927 157.22 231C151.294 242.155 148.206 254.278 150.326 267C155.187 296.177 184.676 317.813 214 312.535C222.056 311.086 230.313 307.735 237 303.022C262.516 285.038 267.321 248.454 248.471 224C240.935 214.224 230.567 208.385 219 204.671C211.991 202.42 203.264 202.157 196 203.465M965 331C974.668 336.502 986.299 341.941 997 345C1006.16 330.043 1014.62 314.597 1024.35 300C1032.91 287.174 1042.86 275.031 1051 262C1044.03 257.72 1036.92 253.674 1030 249.319C1027.58 247.794 1024.16 244.79 1021.09 245.103C1018.5 245.367 1016.81 248.135 1015.38 250.005C1011.64 254.866 1008.09 259.919 1004.67 265C995.162 279.106 986.15 293.415 977.4 308C973.028 315.286 967.411 322.805 965 331M646 261C636.093 265.263 623.671 268.43 613 270C613.089 280.693 615.429 291.257 615.429 302C615.429 316.234 612.15 329.259 609 343C618.202 348.237 631.451 355.919 642 357C647.531 332.874 652.09 310.934 650.086 286C649.452 278.111 649.463 268.207 646 261M948 360C935.357 389.339 917.315 416.42 905 446C916.482 449.672 928.25 453.306 940 456C951.744 427.792 969.245 402.085 981 374C969.627 370.725 959.044 364.285 948 360M1357 365C1352.78 382.798 1342.59 400.248 1333.57 416C1329.43 423.244 1323.37 429.932 1321 438C1331.87 442.525 1342.03 448.677 1353 453C1367.07 426.564 1385.12 401.753 1392 372C1380.45 369.761 1368.72 365.957 1357 365M594 373C579.39 396.76 558.532 415.643 537 433C541.821 439.55 548.995 444.534 555 450C557.33 452.121 560.53 455.914 564 455.847C569.838 455.735 577.95 445.755 581.985 442.001C593.955 430.864 605.053 419.093 614.873 406C619.265 400.146 624.336 394.271 626 387C615.223 382.819 605.102 376.198 594 373M426 504C432.988 509.005 439.934 514.082 447 518.975C449.881 520.97 453.446 524.424 457 524.998C463.128 525.986 472.857 517.213 478 514.281C497.797 502.995 517.464 491.276 536 478C531.25 471.312 524.104 466.271 518 460.834C515.477 458.587 512.657 455.005 509 454.827C506.091 454.686 503.308 456.852 501 458.345C496.344 461.358 491.693 464.362 487 467.319C473.236 475.989 458.955 483.844 445 492.2C438.738 495.949 431.339 499.001 426 504M1300 465C1290.14 479.908 1277.43 493.53 1265.72 507C1260.34 513.188 1252.99 519.269 1250 527C1261.26 531.368 1272.24 538.208 1284 541C1295.03 526.516 1307.81 513.239 1319.2 499C1324.05 492.942 1329.53 486.971 1333 480C1321.89 475.373 1311.68 468.193 1300 465M883 493C870.792 490.7 858.258 489.943 846 492.45C812.502 499.3 785.49 526.79 781.286 561C780.014 571.356 780.607 582.956 783.428 593C785.204 599.323 788.952 605.627 790 612L792 612C792.21 620.867 804.34 632.448 812 636C808.921 646.69 801.071 655.338 798 666C808.692 670.148 819.618 677.294 831 679C833.459 673.095 836.871 667.701 839.752 662C841.11 659.314 842.4 655.582 845.213 654.067C849.246 651.896 858.355 654.002 863 654C873.002 653.996 882.609 651.879 892 648.456C912.825 640.865 927.297 624.484 937.008 605C948.704 581.532 943.378 551.89 931.205 530C928.428 525.006 924.587 520.28 920.711 516.089C918.815 514.039 915.509 511.996 915.241 508.961C915.003 506.27 917.102 503.3 918.247 501C920.692 496.089 922.918 491.075 925 486C916.866 484.317 908.976 481.58 901 479.291C898.079 478.452 893.398 476.26 890.498 478.067C886.684 480.445 884.187 488.879 883 493z"/>
<path style="fill:#000000; stroke:none;" d="M861 508.464C836.894 510.575 813.828 522.823 803.873 546C786.664 586.065 815.455 638.929 862 636.625C892.145 635.133 919.598 614.775 924.675 584C930.727 547.319 900.699 504.987 861 508.464z"/>
<path style="fill:#1ba0fa; stroke:none;" d="M853 517.465C844.888 518.925 836.868 522.46 830 526.965C823.218 531.414 817.977 537.927 814.22 545C808.294 556.155 805.206 568.278 807.326 581C812.187 610.178 841.676 631.813 871 626.535C879.056 625.086 887.313 621.735 894 617.022C919.516 599.039 924.321 562.454 905.471 538C897.935 528.224 887.567 522.385 876 518.671C868.991 516.42 860.264 516.157 853 517.465M316 570C321.753 576.711 332.355 580.609 340 585C342.867 586.646 346.498 589.512 350 589.023C357.255 588.01 365.781 579.74 372 576C389.499 565.478 406.929 554.508 425 545L425 543C417.668 538.823 410.866 533.484 404 528.579C401.144 526.538 397.656 523.127 394 522.785C391.096 522.513 388.361 524.598 386 526.001L372 534.4C353.08 545.751 333.535 556.521 316 570M1166 612C1176.26 617.464 1186.76 623.948 1196 631C1206.37 623.694 1215.04 612.965 1224 604C1235.61 592.39 1249.55 580.41 1259 567C1251.47 562.712 1242.97 559.718 1235 556.281C1232.17 555.061 1228.2 552.498 1225.01 552.992C1219.45 553.856 1212.81 564.186 1209 568L1182 595C1176.54 600.46 1170.45 605.678 1166 612M231 657C238.714 659.91 247.003 661.627 255 663.627C258.204 664.427 262.613 666.357 265.91 665.306C271.766 663.44 276.071 653.39 280.086 649C292.193 635.764 304.94 621.96 320 612C313.329 606.415 304.567 602.582 297 598.281C294.132 596.651 290.469 593.657 287 593.827C281.168 594.113 275.134 602.833 271 606.424C255.667 619.745 239.655 638.485 231 657M1071 707C1079.35 709.718 1087.67 712.556 1096 715.333C1099.19 716.396 1103.57 718.763 1107 718.071C1113.24 716.811 1119.67 707.328 1124 703C1134.65 692.348 1145.11 681.451 1156 671.039C1161.59 665.691 1168.66 661.166 1172 654C1165.17 650.214 1158.55 645.908 1152 641.657C1149.26 639.881 1145.52 636.496 1142 636.997C1139.25 637.389 1137.12 639.92 1135.17 641.68C1131.05 645.405 1126.93 649.072 1123 653L1088 688C1082.23 693.768 1074.48 699.539 1071 707M1385 709C1391.39 713.59 1397.6 718.427 1404 723C1406.6 724.856 1409.77 728.141 1413 728.748C1416.04 729.32 1418.73 726.635 1421 725.01C1426.17 721.301 1431.43 717.949 1437 714.861C1444 710.979 1451.41 708.145 1459 705.67C1462.33 704.585 1467.57 704.257 1470.3 702.012C1472.95 699.83 1473.31 695.108 1474.15 692C1476.49 683.358 1479.19 674.774 1481 666C1455.58 666.003 1430.33 676.71 1409 689.811C1400.67 694.924 1390.83 701.076 1385 709M1514 670C1512.47 681.338 1508.48 693.107 1505 704C1509.91 705.415 1514.29 708.04 1519 710C1502.57 727.898 1497.66 754.579 1502.45 778C1504.06 785.886 1508.72 793.241 1510 801L1512 801C1512.11 805.541 1514.82 808.515 1517.6 811.999C1524.19 820.247 1532.63 828.225 1542 833.218C1545.91 835.304 1553.59 836.993 1556.3 840.51C1558.89 843.856 1555.07 851.453 1553.98 855C1549.98 867.998 1543 886.118 1560 892.786C1580.39 900.786 1587.06 869.207 1590.86 856C1592.02 851.977 1592.83 845.577 1596.3 842.854C1600.62 839.475 1607.94 839.076 1613 837.074C1623.34 832.981 1632.84 827.1 1640.39 818.83C1650.3 807.964 1658.21 794.372 1661.5 780C1670 742.915 1649.56 702.029 1615 686.188C1601.45 679.975 1584.62 678.365 1570 680.754C1563.49 681.818 1554.39 687.112 1548 686.11C1543.94 685.474 1540.41 681.543 1537 679.464C1530.05 675.232 1522.1 671.196 1514 670M217 688C210.398 708.648 208.613 730.445 210.09 752C210.734 761.415 213.254 770.629 214 780C222.04 775.42 229.469 769.516 237 764.141C239.804 762.14 244.009 760.166 245.396 756.816C246.776 753.482 245.324 749.425 245.09 746C244.578 738.525 244.518 730.413 245.579 723C246.452 716.906 247.562 710.954 249.151 705C249.725 702.852 251.196 699.689 249.879 697.564C248.348 695.094 243.549 694.764 241 694.127C232.999 692.126 225.032 689.841 217 688M781 695C772.852 714.468 759.72 733.107 748.575 751C744.06 758.248 736.973 765.602 735 774C741.954 776.997 748.493 781.328 755 785.201C757.641 786.772 761.506 789.984 764.816 789.183C767.247 788.594 768.699 785.894 769.999 783.995C773.134 779.416 776.141 774.755 779 770C790.905 750.201 805.099 730.374 814 709C803.855 703.592 792.098 698.035 781 695z"/>
<path style="fill:#000000; stroke:none;" d="M1581 697.464C1556.89 699.575 1533.83 711.823 1523.87 735C1506.66 775.065 1535.45 827.929 1582 825.625C1612.14 824.133 1639.6 803.775 1644.68 773C1650.73 736.319 1620.7 693.987 1581 697.464z"/>
<path style="fill:#1ba0fa; stroke:none;" d="M1573 706.464C1564.89 707.925 1556.87 711.46 1550 715.965C1543.22 720.414 1537.98 726.927 1534.22 734C1528.29 745.156 1525.21 757.278 1527.33 770C1532.19 799.178 1561.68 820.813 1591 815.536C1599.06 814.086 1607.31 810.735 1614 806.022C1639.52 788.039 1644.32 751.454 1625.47 727C1617.93 717.224 1607.57 711.385 1596 707.671C1588.99 705.42 1580.26 705.157 1573 706.464M915 874L917 874C917.245 884.317 929.393 889.69 934.111 897.718C936.295 901.435 934.317 906.979 934 911C941.272 910.532 949.806 910.149 957 911.325C963.775 912.432 970.095 915.162 977 915.83C990.844 917.17 1005.07 915.191 1018 910.074C1056.57 894.806 1076.1 851.26 1064.86 812C1061.82 801.394 1056.77 789.091 1048 782C1058.36 769.278 1071.95 758.684 1081 745C1072.32 742.175 1063.6 739.368 1055 736.308C1051.67 735.125 1047.57 732.625 1044 734.121C1037.67 736.77 1031.71 745.989 1027.17 751C1024.89 753.516 1022.62 757.28 1019 757.882C1014.05 758.704 1007.85 755.015 1003 754.095C992.677 752.136 981.283 752.347 971 754.45C929.264 762.984 903.224 800.387 906.089 842C906.881 853.493 913.207 863.095 915 874M1306 807C1316.22 812.687 1325.03 821.841 1336 826C1346.36 807.821 1359.94 790.32 1373 774C1376.49 769.635 1380.03 765.316 1383.59 761C1385.12 759.133 1387.83 756.669 1387.8 754.039C1387.76 751.386 1384.84 749.565 1383 748.13C1377.79 744.089 1372.39 740.177 1367 736.394C1364.64 734.737 1362.11 732.896 1359.29 734.661C1353.12 738.522 1348.33 747.423 1343.75 753C1334.87 763.807 1326.94 775.506 1318.98 787C1314.47 793.502 1309.39 799.828 1306 807z"/>
<path style="fill:#000000; stroke:none;" d="M986 770.464C961.894 772.575 938.828 784.823 928.873 808C911.664 848.065 940.455 900.929 987 898.625C1017.14 897.133 1044.6 876.775 1049.68 846C1055.73 809.319 1025.7 766.987 986 770.464z"/>
<path style="fill:#1ba0fa; stroke:none;" d="M978 779.464C969.887 780.925 961.868 784.46 955 788.965C948.218 793.414 942.977 799.927 939.22 807C933.294 818.155 930.206 830.278 932.326 843C937.187 872.178 966.676 893.813 996 888.536C1004.06 887.086 1012.31 883.735 1019 879.022C1044.52 861.039 1049.32 824.454 1030.47 800C1022.93 790.224 1012.57 784.385 1001 780.671C993.991 778.42 985.264 778.157 978 779.464M254 792C247.894 796.842 241.419 801.243 235 805.659C232.155 807.617 227.623 809.821 226.213 813.174C225.14 815.725 226.663 818.648 227.604 821C229.914 826.772 232.469 832.44 235.247 838C242.083 851.682 248.911 865.45 257.721 878C264.209 887.243 271.897 895.278 279 904C288.242 896.868 293.9 884.212 301 875C296.844 869.076 291.624 863.945 287.439 858C281.241 849.196 276.054 839.614 271.247 830C267.288 822.082 263.381 814.192 260.011 806C258.101 801.358 257.013 796.028 254 792M648 878C655.048 887.216 665.754 893.823 674 902C690.858 890.125 704.213 871.636 717.424 856C727.262 844.357 739.178 831.698 746 818C739.094 813.773 731.958 809.939 725 805.799C722.538 804.335 719.158 801.521 716.089 801.997C713.505 802.398 711.722 805.109 710.235 807.005C706.117 812.257 702.392 817.8 698.195 823C682.525 842.415 665.625 860.375 648 878M1258 925C1265.99 921.275 1271.39 912.628 1276.92 906C1285.92 895.216 1294.46 884.239 1302.87 873C1307.54 866.764 1313.22 860.325 1316 853C1309.64 848.709 1303.32 844.378 1297 840.025C1294.62 838.389 1291.17 835.187 1288.09 835.306C1283.44 835.484 1278.4 845.636 1275.87 849C1266.45 861.566 1257.09 874.057 1246.87 886C1244.06 889.285 1236.2 895.45 1236.21 900C1236.21 903.171 1239.99 905.976 1242 908C1247.49 913.526 1253.27 918.794 1258 925M465 951C452.415 950.74 439.106 948.403 427 945C424.013 956.542 421.41 968.325 419 980C430.709 981.577 442.222 984.324 454 985.714C458.149 986.204 464.08 984.805 467.775 987.028C471.188 989.08 473.385 995.259 474 999L476 999C476.18 1006.57 484.677 1014.3 490.039 1019.13C506.506 1033.96 524.913 1041.01 547 1041C598.358 1040.98 637.25 990.725 625 941C633.622 936.903 641.801 930.229 649 924C643.878 917.302 636.398 912.048 630 906.576C627.827 904.717 625.11 901.366 622 901.331C617.478 901.28 613.209 909.148 608.665 906.978C603.828 904.667 599.269 897.795 595 894.325C586.117 887.104 575.971 882.644 565 879.756C518.615 867.546 468.74 903.677 465 951z"/>
<path style="fill:#000000; stroke:none;" d="M545 895.464C520.894 897.575 497.828 909.823 487.873 933C470.664 973.065 499.455 1025.93 546 1023.62C576.145 1022.13 603.598 1001.77 608.675 971C614.727 934.319 584.699 891.987 545 895.464z"/>
<path style="fill:#1ba0fa; stroke:none;" d="M325 897C321.018 903.991 315.891 910.366 311.341 917C309.755 919.312 306.414 922.772 306.907 925.826C307.777 931.217 319.816 936.558 324 939.333C342.768 951.777 365.172 964.03 387 970C390.706 959.074 393.46 946.439 395 935C377.863 929.203 361.336 920.455 346 910.936C338.863 906.506 332.333 901.087 325 897M537 904.464C528.887 905.925 520.868 909.46 514 913.965C507.218 918.415 501.977 924.927 498.22 932C492.294 943.155 489.206 955.278 491.326 968C496.187 997.178 525.675 1018.81 555 1013.54C563.056 1012.09 571.313 1008.74 578 1004.02C603.516 986.039 608.321 949.454 589.471 925C581.935 915.224 571.567 909.385 560 905.671C552.991 903.42 544.264 903.157 537 904.464M1210 923C1197.19 934.153 1183 943.861 1168 951.781C1163.93 953.93 1152.15 957.543 1150.79 962.213C1149.99 964.936 1151.82 968.468 1152.67 971C1155.24 978.654 1157.73 986.624 1161 994C1170.18 991.819 1178.79 986.815 1187 982.306C1204.12 972.901 1220.27 961.855 1235 949C1228.43 939.663 1219.35 929.584 1210 923M939 946C943.976 966.997 958.662 985.495 976 997.706C983.172 1002.76 992.236 1007.69 1001 1009L1013 976C992.38 968.981 974.346 951.338 971 929C959.531 931.211 949.526 941.085 939 946M1034 1015C1057.9 1015.02 1081.29 1015.05 1105 1010.61C1110.7 1009.54 1116.37 1008.58 1122 1007.13C1123.9 1006.63 1126.74 1006.27 1127.88 1004.44C1129.5 1001.82 1127.14 997.495 1126.19 995C1123.32 987.407 1120.6 979.689 1118 972C1100.91 974.301 1084.24 978.19 1067 979.83C1061.74 980.331 1051.97 977.9 1047.51 981.028C1044.76 982.956 1043.79 988.013 1042.68 991C1039.75 998.941 1036.23 1006.83 1034 1015z"/>
</svg>
